<svg id="BaldDude" data-name="Bald Dude" xmlns="http://www.w3.org/2000/svg" viewBox="0 0 438 439.74"><defs><style>.cls-1{fill:#3ae896;}.cls-2{fill:#9dc465}.cls-3{fill:#eadbbf}.cls-4,.cls-5{opacity:0.1;}.cls-6{fill:#3c3939}.cls-7{fill:#f4f4f4}.cls-10,.cls-8,.cls-9{fill:none;stroke:#721111;stroke-width:3px;}.cls-10,.cls-8{stroke-miterlimit:10;}.cls-10,.cls-9{stroke-linecap:round;}.cls-9{stroke-linejoin:round;}</style></defs><rect id="background" class="cls-1" width="438" height="438"/><path id="shirt" class="cls-2" d="M510.22,742H388.41c-4.75-46.09,11.38-83.85,36.68-102.5,32.56-24,83.76-11.55,96.59,13C535.68,679.29,513.83,709.39,510.22,742Z" transform="translate(-261 -303)"/><g id="skin"><path class="cls-3" d="M456.5,578.5c2.75,22,6,51,3,63s20,24,30,6,8-51,5-62S455.5,570.5,456.5,578.5Z" transform="translate(-261 -303)"/><path class="cls-3" d="M364.5,470.5c-45-106.27,150.22-157.11,144-25,0,61,28.62,52.26,47,78C597.07,631,408.81,641.92,364.5,470.5Z" transform="translate(-261 -303)"/><path class="cls-3" d="M364.83,533.72C337.23,513,355.57,482,384,504,413.75,528.18,397.94,559,364.83,533.72Z" transform="translate(-261 -303)"/></g><g id="shadows"><path class="cls-4" d="M496.93,611.08c-22.36-5-42.63,18.18-34.84,39.66-5.95-15,1.61-31.37-3.61-55.43C471.09,605.6,498.56,595.46,496.93,611.08Z" transform="translate(-261 -303)"/><path class="cls-5" d="M529.34,595.72c-53,20.87-97.61-5.09-131.68-56.62-26.66,24.07-76.39-55.44-21.74-40.33C296,384.3,502.7,292.15,508.51,445.5c-2.27,24.3-76.2,5.25-77,83C430.47,578.29,484,614.21,529.34,595.72Z" transform="translate(-261 -303)"/><path class="cls-5" d="M501,531c-7.69-22,13.26-7.47,22-12,7-4,3.81-5.56,6-6C551.53,528.14,508.3,548.09,501,531Z" transform="translate(-261 -303)"/><path class="cls-5" d="M517.13,642.87A64.53,64.53,0,0,0,495,631.53C500.46,628.54,512.55,639.21,517.13,642.87Z" transform="translate(-261 -303)"/><path class="cls-5" d="M460.7,627.77c-41.26,16.46-69.54,76.12-28.59,114.23H390C384.24,683.16,412.56,627,460.7,627.77Z" transform="translate(-261 -303)"/></g><g id="eyebrows"><path class="cls-6" d="M422.93,433.45c-3.71,10.36,30.88-9.12,38.36-18.12,4.47-5.39-10.54-9.88-16.61-7C438.29,411.34,424.62,428.74,422.93,433.45Z" transform="translate(-261 -303)"/><path class="cls-6" d="M519.93,433.45c-3.71,10.36,30.88-9.12,38.36-18.12,4.47-5.39-10.54-9.88-16.61-7C535.29,411.34,521.62,428.74,519.93,433.45Z" transform="translate(-261 -303)"/></g><g id="eyes"><ellipse class="cls-7" cx="278.1" cy="173.03" rx="9.9" ry="10.27"/><ellipse class="cls-7" cx="189.37" cy="172.5" rx="11.37" ry="11.73"/></g><g id="outlines"><path class="cls-8" d="M390.41,741c-4.64-59.86,18.67-108,70.26-115" transform="translate(-261 -303)"/><path class="cls-8" d="M495.26,630c56.06,19.15,23.54,68.3,16.24,112.52" transform="translate(-261 -303)"/><path class="cls-9" d="M496.78,603c.61,13.85-.43,32-7.28,44.51-10,18-31.67,6.26-30-6,2.16-15.59,1.09-30.6-.85-46.09" transform="translate(-261 -303)"/><path class="cls-8" d="M397.36,538.65C465.55,653.36,598.8,591.93,555.5,523.5c-18.38-25.73-47-17-47-78C507.42,303.15,298.94,365.34,376,499" transform="translate(-261 -303)"/><path class="cls-10" d="M398.5,537.5C382.91,556,339.61,520,353.32,502.12c4.49-5.5,14.18-10.62,26.18-.62" transform="translate(-261 -303)"/><path class="cls-10" d="M498,567c-2-8,9.55-10.92,19.5-9.5,14,2,22-1,29-10" transform="translate(-261 -303)"/><path class="cls-10" d="M498.5,525.5c0-5,2.93-7.32,7-8,6-1,9.51,5,17,2,5-2,6-5,6-7" transform="translate(-261 -303)"/><path class="cls-8" d="M422.93,433.45c-3.71,10.36,30.88-9.12,38.36-18.12,4.47-5.39-10.54-9.88-16.61-7C438.29,411.34,424.62,428.74,422.93,433.45Z" transform="translate(-261 -303)"/><path class="cls-8" d="M519.93,433.45c-3.71,10.36,30.88-9.12,38.36-18.12,4.47-5.39-10.54-9.88-16.61-7C535.29,411.34,521.62,428.74,519.93,433.45Z" transform="translate(-261 -303)"/><path class="cls-8" d="M529.2,476c.06-13.43,19.74-13.42,19.8,0S529.26,489.46,529.2,476Z" transform="translate(-261 -303)"/><path class="cls-8" d="M439,475.5c.07-15.35,22.66-15.35,22.73,0S439.07,490.85,439,475.5Z" transform="translate(-261 -303)"/><path class="cls-8" d="M455.5,477a1.5,1.5,0,0,1-3,0A1.5,1.5,0,0,1,455.5,477Z" transform="translate(-261 -303)"/><path class="cls-8" d="M543.5,477a1.5,1.5,0,0,1-3,0A1.5,1.5,0,0,1,543.5,477Z" transform="translate(-261 -303)"/></g></svg>